<svg xmlns="http://www.w3.org/2000/svg" version="1.1" xmlns:xlink="http://www.w3.org/1999/xlink" xmlns:svgjs="http://svgjs.dev/svgjs" width="2000" height="1247" viewBox="0 0 2000 1247"><g transform="matrix(1,0,0,1,-1.2121212121212466,0.504858299595071)"><svg viewBox="0 0 396 247" data-background-color="#0a1627" preserveAspectRatio="xMidYMid meet" height="1247" width="2000" xmlns="http://www.w3.org/2000/svg" xmlns:xlink="http://www.w3.org/1999/xlink"><g id="tight-bounds" transform="matrix(1,0,0,1,0.2400000000000091,-0.09999999999999432)"><svg viewBox="0 0 395.52 247.2" height="247.2" width="395.52"><g><svg></svg></g><g><svg viewBox="0 0 395.52 247.2" height="247.2" width="395.52"><g mask="url(#decd3f98-ae44-42f7-8b47-36e843374302)"><g><path xmlns="http://www.w3.org/2000/svg" d="M271.229 124.313v70.379c-2.378 2.061-5.706 4.121-9.986 6.182-4.28 2.061-9.067 3.883-14.361 5.468-5.326 1.585-10.763 2.901-16.31 3.947-5.548 1.014-10.779 1.522-15.693 1.522v0c-13.949 0-26.471-2.14-37.567-6.42-11.096-4.28-20.606-10.224-28.532-17.832-7.925-7.608-13.996-16.533-18.212-26.773-4.185-10.208-6.277-21.335-6.277-33.382v0c0-14.741 2.378-27.818 7.133-39.231 4.755-11.413 11.223-21.05 19.401-28.912 8.147-7.83 17.579-13.775 28.294-17.833 10.684-4.026 21.89-6.039 33.62-6.039v0c10.303 0 19.861 1.189 28.675 3.567 8.781 2.378 16.342 5.469 22.682 9.273v0l-8.321 23.3c-3.17-1.744-7.085-3.456-11.746-5.135-4.692-1.649-9.495-2.948-14.409-3.9-4.914-0.951-9.431-1.427-13.552-1.426v0c-10.145 0-19.211 1.458-27.2 4.375-8.021 2.948-14.884 7.196-20.591 12.744-5.706 5.548-10.097 12.285-13.172 20.21-3.107 7.925-4.66 16.881-4.66 26.867v0c0 9.035 1.585 17.309 4.755 24.823 3.17 7.545 7.608 14.06 13.315 19.544 5.706 5.453 12.522 9.637 20.448 12.554 7.925 2.948 16.723 4.422 26.392 4.423v0c5.548 0 11.016-0.555 16.405-1.665 5.389-1.11 9.986-2.695 13.791-4.755v0-31.385h-33.287v-24.49z" fill="#fe0039" fill-rule="nonzero" stroke="none" stroke-width="1" stroke-linecap="butt" stroke-linejoin="miter" stroke-miterlimit="10" stroke-dasharray="" stroke-dashoffset="0" font-family="none" font-weight="none" font-size="none" text-anchor="none" style="mix-blend-mode: normal" data-fill-palette-color="tertiary"></path></g></g><g transform="matrix(1,0,0,1,123.98166270783847,37.08)"><svg viewBox="0 0 147.55667458432305 173.04" height="173.04" width="147.55667458432305"><g><svg viewBox="0 0 147.55667458432305 173.04" height="173.04" width="147.55667458432305"><g><svg viewBox="0 0 147.55667458432305 173.04" height="173.04" width="147.55667458432305"><g><svg viewBox="0 0 147.55667458432305 173.04" height="173.04" width="147.55667458432305"><g id="textblocktransform"><svg viewBox="0 0 147.55667458432305 173.04" height="173.04" width="147.55667458432305" id="textblock"><g><svg viewBox="0 0 147.55667458432305 173.04" height="173.04" width="147.55667458432305"><g transform="matrix(1,0,0,1,0,0)"><svg width="147.55667458432305" viewBox="-0.15000009536743164 -39.70000076293945 36.89999961853027 43.10000228881836" height="173.04" data-palette-color="#fe0039"><path d="M33.75-18L33.75-3.2Q33-2.55 31.65-1.9 30.3-1.25 28.63-0.75 26.95-0.25 25.2 0.08 23.45 0.4 21.9 0.4L21.9 0.4Q17.5 0.4 14-0.95 10.5-2.3 8-4.7 5.5-7.1 4.17-10.33 2.85-13.55 2.85-17.35L2.85-17.35Q2.85-22 4.35-25.6 5.85-29.2 8.43-31.68 11-34.15 14.38-35.43 17.75-36.7 21.45-36.7L21.45-36.7Q24.7-36.7 27.48-35.95 30.25-35.2 32.25-34L32.25-34 30.5-29.1Q29.5-29.65 28.03-30.18 26.55-30.7 25-31 23.45-31.3 22.15-31.3L22.15-31.3Q18.95-31.3 16.43-30.38 13.9-29.45 12.1-27.7 10.3-25.95 9.33-23.45 8.35-20.95 8.35-17.8L8.35-17.8Q8.35-14.95 9.35-12.58 10.35-10.2 12.15-8.47 13.95-6.75 16.45-5.83 18.95-4.9 22-4.9L22-4.9Q23.75-4.9 25.45-5.25 27.15-5.6 28.35-6.25L28.35-6.25 28.35-12.85 21.35-12.85 21.35-18 33.75-18Z" opacity="1" transform="matrix(1,0,0,1,0,0)" fill="#fe0039" class="undefined-text-0" data-fill-palette-color="primary" id="text-0"></path></svg></g></svg></g></svg></g></svg></g></svg></g></svg></g></svg></g></svg></g><defs><mask id="decd3f98-ae44-42f7-8b47-36e843374302"><rect width="395.52" height="247.2" fill="white"></rect><g transform="matrix(1,0,0,1,123.98166270783847,37.08)" id="clone"><svg viewBox="0 0 147.55667458432305 173.04" height="173.04" width="147.55667458432305"><g><svg viewBox="0 0 147.55667458432305 173.04" height="173.04" width="147.55667458432305"><g><svg viewBox="0 0 147.55667458432305 173.04" height="173.04" width="147.55667458432305"><g><svg viewBox="0 0 147.55667458432305 173.04" height="173.04" width="147.55667458432305"><g id="SvgjsG1062"><svg viewBox="0 0 147.55667458432305 173.04" height="173.04" width="147.55667458432305" id="SvgjsSvg1061"><g><svg viewBox="0 0 147.55667458432305 173.04" height="173.04" width="147.55667458432305"><g transform="matrix(1,0,0,1,0,0)"><svg width="147.55667458432305" viewBox="-0.15000009536743164 -39.70000076293945 36.89999961853027 43.10000228881836" height="173.04" data-palette-color="#fe0039"><path d="M33.75-18L33.75-3.2Q33-2.55 31.65-1.9 30.3-1.25 28.63-0.75 26.95-0.25 25.2 0.08 23.45 0.4 21.9 0.4L21.9 0.4Q17.5 0.4 14-0.95 10.5-2.3 8-4.7 5.5-7.1 4.17-10.33 2.85-13.55 2.85-17.35L2.85-17.35Q2.85-22 4.35-25.6 5.85-29.2 8.43-31.68 11-34.15 14.38-35.43 17.75-36.7 21.45-36.7L21.45-36.7Q24.7-36.7 27.48-35.95 30.25-35.2 32.25-34L32.25-34 30.5-29.1Q29.5-29.65 28.03-30.18 26.55-30.7 25-31 23.45-31.3 22.15-31.3L22.15-31.3Q18.95-31.3 16.43-30.38 13.9-29.45 12.1-27.7 10.3-25.95 9.33-23.45 8.35-20.95 8.35-17.8L8.35-17.8Q8.35-14.95 9.35-12.58 10.35-10.2 12.15-8.47 13.95-6.75 16.45-5.83 18.95-4.9 22-4.9L22-4.9Q23.75-4.9 25.45-5.25 27.15-5.6 28.35-6.25L28.35-6.25 28.35-12.85 21.35-12.85 21.35-18 33.75-18Z" opacity="1" transform="matrix(1,0,0,1,0,0)" fill="#fe0039" class="undefined-text-0" data-fill-palette-color="primary" id="SvgjsPath1060" stroke-width="5" stroke="black" stroke-linejoin="round"></path></svg></g></svg></g></svg></g></svg></g></svg></g></svg></g></svg></g></mask></defs></svg><rect width="395.52" height="247.2" fill="none" stroke="none" visibility="hidden"></rect></g></svg></g></svg>